# xmcd CD database file
#
# Track frame offsets:
#	150
#	13310
#	29963
#	38821
#	56065
#	60309
#	78122
#	89016
#	99023
#	116002
#	125305
#	137863
#	145750
#	149169
#
# Disc length: 2097 seconds
#
# Revision: 0
# Processed by: cddbd v1.4PL0 Copyright (c) Steve Scherf et al.
# Submitted via: CDex 1.50
#
DISCID=ca082f0e
DTITLE=Hanne Krogh - Egners Barnesanger
DYEAR=2000
DGENRE=Barnesanger
TTITLE0=Sjørøvervise
TTITLE1=Vesle Hoa
TTITLE2=Amandus Dokkemann
TTITLE3=Dyrene i Afrika
TTITLE4=Politimester Bastians vise
TTITLE5=Kjøreturen
TTITLE6=Muntre Musikanter
TTITLE7=Papegøyen fra Amerika
TTITLE8=Den uheldige mannen
TTITLE9=Veslebror på Lofotfiske
TTITLE10=Grisevær-vise
TTITLE11=Bestemor Skogmus vise
TTITLE12=Voggevise
TTITLE13=Jeg folder mine hender små  (FN-bønn)
EXTD=YEAR: 2000
EXTT0=
EXTT1=
EXTT2=
EXTT3=
EXTT4=
EXTT5=
EXTT6=
EXTT7=
EXTT8=
EXTT9=
EXTT10=
EXTT11=
EXTT12=
EXTT13=
PLAYORDER=
